<svg id="Layer_1" data-name="Layer 1" xmlns="http://www.w3.org/2000/svg" width="24" height="24" viewBox="0 0 24 24"><defs><style>.cls-1{fill:#fefdfd;}.cls-2{fill:#d90202;}.cls-3{fill:#239e40;}.cls-4{fill:#41ab59;}.cls-5{fill:#db0d0d;}.cls-6{fill:#42ac5a;}.cls-7{fill:#db1212;}.cls-8{fill:#fcf0f0;}.cls-9{fill:#fceded;}.cls-10{fill:#f9dddd;}.cls-11{fill:#fbe6e6;}.cls-12{fill:#fbebeb;}.cls-13{fill:#fae3e3;}.cls-14{fill:#fdf3f3;}.cls-15{fill:#e44a4a;}.cls-16{fill:#f9d6d6;}.cls-17{fill:#fae0e0;}.cls-18{fill:#e44c4c;}.cls-19{fill:#e55353;}.cls-20{fill:#f0f8f2;}.cls-21{fill:#f2f9f4;}.cls-22{fill:#f9fcfa;}.cls-23{fill:#e1f1e5;}.cls-24{fill:#def0e3;}.cls-25{fill:#ecf6ef;}.cls-26{fill:#e6f4e9;}.cls-27{fill:#f6fbf8;}.cls-28{fill:#38a852;}.cls-29{fill:#63ba77;}.cls-30{fill:#ebf6ed;}</style></defs><title>Artboard 1</title><path class="cls-1" d="M1,14.39v-4.2l.28,0,1.27,0H12.7c.44,0,.88,0,1.31,0s1.1,0,1.65,0,.85,0,1.27,0l1.89,0h.08c.65,0,1.29,0,1.94,0s1.28,0,1.92,0l.28.09V6a2.21,2.21,0,0,1,.05.25V18.6H1.28A1,1,0,0,1,1,18.54H23V14.37a3.31,3.31,0,0,1-.5.09c-.55,0-1.1-.05-1.66-.05s-.87.05-1.31.05-1.12-.06-1.68-.06-1,.06-1.53.06-.91-.06-1.37-.06-.85.06-1.27.06-1.09-.05-1.64-.05-.87.05-1.31.05-1.1-.05-1.66-.05-.87.05-1.31.05-1.07-.05-1.6-.05-1,.05-1.56.05-.94-.05-1.41-.05-1,0-1.56.05A4.53,4.53,0,0,1,1,14.39ZM11.19,11.5l0-.24a1.12,1.12,0,0,0-.66,1,1.09,1.09,0,0,0,.41,1,1.28,1.28,0,0,0-.06-.34,1.41,1.41,0,0,1,.2-1.27s.09,0,.14-.06l-.06.25a1.36,1.36,0,0,0,.35,1.55l.26.23-.44.07v0l.75.07v0l.61-.15-.29-.08c.78-.79.9-1.69.31-2.17.21,1,.08,1.57-.43,1.86,0-.56,0-1.13,0-1.7a2,2,0,0,0-.08-.37l.22-.06V11l-.66,0-.08,0V11l.34.09h0c-.21.13-.17.34-.17.54l0,1.39c0,.06,0,.12,0,.22a1.6,1.6,0,0,1-.43-1.95,1.35,1.35,0,0,0-.11.09A.48.48,0,0,1,11.19,11.5Zm1.62-.22a1.54,1.54,0,0,1,.23,2,1.09,1.09,0,0,0,.53-1.12A1,1,0,0,0,12.81,11.28ZM12.48,11l-.06-.06s0,0,0,0,0,0,0,.06Z"/><path class="cls-2" d="M1,14.39a4.53,4.53,0,0,0,.62.07c.52,0,1-.05,1.56-.05s.94.05,1.41.05,1-.05,1.56-.05,1.07.05,1.6.05.88-.05,1.31-.05,1.11.05,1.66.05.88-.05,1.31-.05,1.09.05,1.64.05.85-.06,1.27-.06.91.06,1.37.06,1-.06,1.53-.06,1.12.06,1.68.06.88-.05,1.31-.05,1.11,0,1.66.05a3.31,3.31,0,0,0,.5-.09v4.17H1Zm13.31.22-.22-.06H13.05l-.17,0H11a2.44,2.44,0,0,0-.38,0s-.1.08-.14.13l-.06-.06s-.06-.1-.09-.1H9.23s-.07.06-.1.09v.07c-.07-.21-.22-.15-.37-.14l0,.31-.15-.33H7.09L7,14.91l0-.38c-.11.1-.31-.06-.31.19l-.06-.06s-.08-.1-.12-.1h-1s-.09.06-.13.09v.14l0,.35c.16-.26.16-.26.38-.09a.2.2,0,0,0,.13,0c.15,0,.29,0,.43,0l.32,0V15l-.14-.09a.8.8,0,0,0,.7.15h.1c.07,0,.22.12.23-.09l.15,0,0,.06H9l.1-.28,0,.26.33-.13c.11.32.35.12.56.17v-.29h.07v.27h.38l-.2-.15,0-.09A.55.55,0,0,0,11,15h.23l.15,0L11.3,15l.08-.05c.26.2.56.08.85.1h.38l.13-.06h0l0,0c.17,0,.35.17.45-.1,0,0,.09,0,.15,0h.08c0,.06.1.15.16.17a.76.76,0,0,0,.3,0L14,15v-.16s0,0,0-.05H14v.26h.4l-.22-.15c.07,0,.18,0,.19,0,0,.21.17.14.28.14A3.16,3.16,0,0,0,15,15l.07,0c.11-.19.21-.31.35,0,0,0,.05,0,.08,0,.22,0,.43,0,.65,0,.06,0,.11-.06.17-.09.14.18.35.09.54.08H17S17,15,17.08,15a1,1,0,0,1,.24-.06c.11.32.35.07.53.16v-.3h.07v.26h.89v-.49H16.86c-.22,0-.46-.05-.6.2v-.08s-.07-.12-.11-.12c-.53,0-1.07,0-1.6,0-.05,0-.1.09-.15.14l-.06-.06A0,0,0,0,0,14.35,14.61Zm-11.74.05s0-.1-.07-.1H1.38s0,.06-.06.1v.12l0,.34c.14-.17.22-.43.38-.09,0,0,.09,0,.14,0s.29,0,.43,0h1A.54.54,0,0,1,3.39,15a1.18,1.18,0,0,1,.18-.06c.12.33.38.12.58.15h1v-.5l-.3,0,0,.34h0l0-.36H3.16L3,14.91l0-.37c-.13.06-.31-.08-.32.17Zm17.63,0s-.06-.1-.09-.1H19s-.07.06-.1.1v.12l0,.36c.18-.31.22-.32.43-.11a.21.21,0,0,0,.14,0c.15,0,.29,0,.43,0h1A.48.48,0,0,1,21,15a1.18,1.18,0,0,1,.18-.06c.12.33.38.12.58.15h1v-.5l-.29,0,0,.34h0l0-.36H20.79l-.15.35,0-.35c-.13,0-.31-.1-.32.15Z"/><path class="cls-3" d="M23,6v4.19l-.28-.09V9.53l-.31,0,0,.3-.16-.33H20.8l-.16.33,0-.32H19s-.06.08-.09.12v0l0,.32h-.08V9.54h-.31l0,.26-.16-.27h-.1a2.42,2.42,0,0,0-1.36,0l-.06,0v.07h0l.07.06h0c-.19.08-.12.22-.09.36h-.1V9.54H14.94c-.2,0-.44-.11-.58.15v0c-.07-.06-.15-.15-.22-.15-.41,0-.82,0-1.25,0v.36l0,0-.06-.38H12.7l0,.38-.06,0,0-.24h0v0l0-.07H11c-.26,0-.07.22-.18.31l0-.33c-.15,0-.31,0-.37.17V9.63s-.07-.1-.11-.1H9.06c-.23,0-.07.21-.11.32l-.1,0v-.3h-.1v.34l-.07,0c0-.12.11-.3-.11-.36H8.05l-.84,0v.11l-.15-.15c0,.11,0,.21-.07.32l0,0,0-.43-.41.23v0c.09-.19,0-.17-.15-.17-.3,0-.6,0-.9,0-.07,0-.13.09-.19.15H5.19l-.31-.15,0,.36-.16-.33H3.17L3,9.86l0-.32H2.61l-1.23,0s0,.09-.06.13v.52l-.28,0V6Z"/><path class="cls-4" d="M6.5,9.65v0l-.28,0,0,.3.29,0v0l-.16-.08,0-.06.2.08c.06,0,.12.11.19.12a.92.92,0,0,0,.37,0c.1,0,.18-.18.26-.18s.19.17.29.18c.44,0,.88,0,1.34,0V9.54h.07c.06,0,.12.1.18.1h1.11v.06l-.33,0,0,.31.3,0V10l-.15-.08,0-.06c.22.11.42.35.72.16V9.54h.07c.07,0,.13.09.2.1h1.1l.07.06H11.08l0,.31a1.66,1.66,0,0,1,.24-.18s.09.09.14.14l0,0H12l.66-.07h0c.18,0,.5.08.51,0,.09-.25.26-.16.43-.17-.14-.18-.38-.05-.54-.18h1.32v0l-.3,0V10l.29,0v0l-.15-.08c.07,0,.18-.05.19,0,.12.32.36.1.55.17V9.54H15s.08.1.12.1h1s.08-.06.13-.1h.07c0,.15-.06.17-.19.17-.33,0-.67,0-1,0-.06,0-.12.06-.17.09.15,0,.34,0,.35.07.06.26.26.13.39.15a4.86,4.86,0,0,0,.54,0l-.06-.15,0,0,.11.13.29.06h.1c.09,0,.25,0,.25,0,.06-.29.27-.14.43-.18a.3.3,0,0,0-.17-.11l-.42,0h0l1.17,0c.06,0,.12-.07.19-.1h.1c0,.31-.27.1-.39.22V10l.29,0V10l-.16-.07c.08,0,.2-.06.21,0,.1.32.36.13.54.17h0l0,.13-1.89,0c-.42,0-.85,0-1.27,0s-1.1,0-1.65,0-.87,0-1.31,0H2.59l-1.27,0V10h.9l0-.31H1.32V9.63H2.46s.1-.07.15-.1h.07c0,.32-.29.07-.39.23l0,.26.29,0v0l-.17-.08,0-.08.21.14s.06.08.08.08c.21-.06.48.16.65-.14H3.5c.22.3.53.11.8.15a1,1,0,0,0,.34-.11c.11.23.33.09.53.11l0-.38H6.5Zm8.57.37V9.86l-.06,0A1.12,1.12,0,0,0,15.07,10Zm-1.15,0,0,0V9.73c-.27-.06-.39.08-.53.29ZM9.12,9.7l0,.27.34-.11c.11.33.35.1.55.17l0-.36-.36.12C9.56,9.59,9.34,9.75,9.12,9.7ZM5.27,10l.33-.13c.11.32.35.13.56.17V9.68l-.38.11c-.11-.19-.31-.06-.5-.07Zm12.57-.25c-.29,0-.46.1-.45.27h.45Z"/><path class="cls-5" d="M12,11.12,11.65,11l.07-.08.66,0v.09l-.22.06a2,2,0,0,1,.08.37c0,.57,0,1.14,0,1.7.51-.29.64-.84.43-1.86.59.48.47,1.38-.31,2.17l.29.08-.61.15v0l-.75-.07v0l.44-.07-.26-.23a1.36,1.36,0,0,1-.35-1.55l.06-.25h0a.48.48,0,0,0,.11-.09,1.35,1.35,0,0,1,.11-.09,1.6,1.6,0,0,0,.43,1.95c0-.1,0-.16,0-.22l0-1.39c0-.2,0-.41.17-.54Z"/><path class="cls-6" d="M18.82,10.15l0-.13h.06L19,10c.1,0,.28-.1.29-.08.15.27.36.08.56.13l0-.32-.37,0,.19.17,0,.08a.67.67,0,0,0-.69-.28v0H20c.07,0,.13-.07.2-.1h.07c0,.32-.28.07-.38.23V10l.29,0v0l-.17-.08,0-.06c.07,0,.21,0,.21.07s.13.13.24.13H21l0,0,.17-.15.11.2h1.48v.12c-.64,0-1.28,0-1.92,0s-1.29,0-1.94,0h-.08Z"/><path class="cls-7" d="M12.81,11.28a1,1,0,0,1,.76.86A1.09,1.09,0,0,1,13,13.26,1.54,1.54,0,0,0,12.81,11.28Z"/><path class="cls-7" d="M11.19,11.5s-.12,0-.14.06a1.41,1.41,0,0,0-.2,1.27,1.28,1.28,0,0,1,.06.34,1.09,1.09,0,0,1-.41-1,1.12,1.12,0,0,1,.66-1l0,.24Z"/><path class="cls-5" d="M11.65,11V10.9l.08,0Z"/><path class="cls-5" d="M12.48,11l-.08,0s0,0,0-.06,0,0,0,0Z"/><path class="cls-3" d="M18.82,10.14h0Z"/><path class="cls-7" d="M12,11.12h0Z"/><path class="cls-8" d="M9.12,14.77l-.1.28H7.64l0-.06-.15,0c0,.21-.16.06-.23.09v-.26c.38,0,.76,0,1.14,0,.17,0,.24-.06.23-.22l.15.33,0-.31c.15,0,.3-.07.37.14v.06Z"/><path class="cls-9" d="M16.87,15.05c-.19,0-.4.1-.54-.08-.06,0-.11.09-.17.09-.22,0-.43,0-.65,0,0,0-.07,0-.08,0-.14-.28-.24-.16-.35,0L15,15v-.25l1.25,0c.14-.25.38-.21.6-.2Z"/><path class="cls-10" d="M15,14.79V15a3.16,3.16,0,0,1-.32,0c-.11,0-.27.07-.28-.14,0,0-.12,0-.19,0l.22.15H14v-.26l.37-.07c.05-.05.1-.14.15-.14.53,0,1.07,0,1.6,0,0,0,.07.08.11.12H15.11C15.05,14.67,14.9,14.62,15,14.79Z"/><path class="cls-11" d="M17,14.56h1.83v.49h-.89v-.26l.36,0v-.07H17Z"/><path class="cls-12" d="M3.28,14.56h1.5l0,.36h0l0-.34.3,0v.5H4.69l0-.16H4.6l-.07.16H4.25l.06-.29h.28v-.07H4.15l-.87,0Z"/><path class="cls-9" d="M20.91,14.56h1.45l0,.36h0l0-.34.29,0v.5h-.47l0-.14h0l-.05.14h-.28l.06-.29h.28v-.07h-.43l-.87,0Z"/><path class="cls-13" d="M11,15a.55.55,0,0,1-.69-.23l0,.09.2.15h-.38v-.27l.37-.06c0-.05.09-.12.14-.13a2.44,2.44,0,0,1,.38,0Z"/><path class="cls-9" d="M20.8,15.05h-.88v-.25l.37-.08c0-.25.19-.12.32-.15l0,.35.15-.35Z"/><path class="cls-9" d="M2.66,14.71c0-.25.19-.11.32-.17l0,.37.15-.35v.49H2.29v-.25Z"/><path class="cls-12" d="M7.11,15.05a.8.8,0,0,1-.7-.15l.14.09v.07l-.32,0v-.25l.38-.07c0-.25.2-.09.31-.19l0,.38.14-.35Z"/><path class="cls-14" d="M11.24,15h-.16v-.26h1.3l-.16.26c-.29,0-.59.1-.85-.1L11.3,15Z"/><path class="cls-15" d="M14.41,14.72l-.37.07h-.5l-.08.1h-.08a.53.53,0,0,0,0-.11l-.26,0,0-.21h1.08v.08h.09l.13,0Z"/><path class="cls-16" d="M6.22,14.79V15c-.14,0-.28,0-.43,0a.2.2,0,0,1-.13,0c-.22-.17-.22-.17-.38.09l0-.35Z"/><path class="cls-17" d="M19.92,14.79V15c-.14,0-.28,0-.43,0a.21.21,0,0,1-.14,0c-.21-.21-.25-.2-.43.11l0-.36Z"/><path class="cls-10" d="M10,14.78v.29c-.21-.05-.45.15-.56-.17L9.15,15l0-.26H10Z"/><path class="cls-17" d="M2.29,14.79V15c-.14,0-.28,0-.43,0s-.13,0-.14,0c-.16-.34-.24-.08-.38.09l0-.34Z"/><path class="cls-8" d="M21.78,15.05c-.2,0-.46.18-.58-.15A1.18,1.18,0,0,0,21,15a.48.48,0,0,0-.11.09v-.26h.86Z"/><path class="cls-8" d="M4.15,15.05c-.2,0-.46.18-.58-.15a1.18,1.18,0,0,0-.18.06.54.54,0,0,0-.12.09v-.26h.86Z"/><path class="cls-9" d="M17.85,14.78v.3c-.18-.09-.42.16-.53-.16a1,1,0,0,0-.24.06s-.07,0-.11.08l.06-.3Z"/><path class="cls-18" d="M12.39,14.78h-1.3v-.14c.39,0,.78,0,1.16,0,.05,0,.09-.06.14-.1h.12a0,0,0,0,0,0,0l0,.14Z"/><path class="cls-18" d="M8.58,14.56c0,.16-.06.22-.23.22-.38,0-.76,0-1.14,0v-.14c.37,0,.74,0,1.11,0,0,0,.09-.06.13-.1Z"/><path class="cls-18" d="M19.92,14.79h-1v-.12h1.35l.05.05Z"/><path class="cls-12" d="M20.24,14.66H18.89s.06-.1.1-.1h1.16S20.21,14.62,20.24,14.66Z"/><path class="cls-18" d="M2.29,14.79h-1v-.12H2.61l.05.05Z"/><path class="cls-15" d="M6.22,14.79h-1v-.14H6.54l.06.06Z"/><path class="cls-12" d="M9.13,14.65s.06-.09.1-.09h1.1s.06.07.09.1Z"/><path class="cls-8" d="M12.39,14.56c-.05,0-.09.1-.14.1-.38,0-.77,0-1.16,0v-.08Z"/><path class="cls-18" d="M15,14.79c-.11-.17,0-.12.1-.12h1.16v.08Z"/><path class="cls-15" d="M9.13,14.65h1.29l.06.06-.37.06h-1v-.13Z"/><path class="cls-12" d="M2.61,14.66H1.32s0-.1.06-.1H2.54S2.59,14.62,2.61,14.66Z"/><path class="cls-12" d="M6.54,14.66H5.25s.08-.09.13-.09h1S6.5,14.62,6.54,14.66Z"/><path class="cls-14" d="M13.05,14.55l0,.21.26,0a.53.53,0,0,1,0,.11c-.06,0-.15,0-.15,0-.1.27-.28.14-.44.1l.09-.42Z"/><path class="cls-8" d="M8.45,14.56s-.09.1-.13.1c-.37,0-.74,0-1.11,0v-.09Z"/><path class="cls-15" d="M17.85,14.78l-.82,0v-.08h1.25v.07l-.36,0Z"/><path class="cls-14" d="M12.49,14.75l0-.14,0,0h.11l-.05.46h-.16Z"/><path class="cls-14" d="M13.46,14.89l.08-.1c.06.23.08.24.35.13l-.19-.13h.22l0,.05V15l0,.06a.76.76,0,0,1-.3,0C13.56,15,13.51,15,13.46,14.89Z"/><path class="cls-19" d="M17,14.68v.08l-.06.3h-.1v-.49H17Z"/><path class="cls-11" d="M12.49,14.75l0,.29h-.22l.16-.26Z"/><path class="cls-19" d="M7.21,14.56v.49h-.1l0-.49Z"/><path class="cls-19" d="M20.91,14.79v.26H20.8v-.49h.12v.23Z"/><path class="cls-19" d="M3.28,14.79v.26h-.1v-.49h.12v.23Z"/><path class="cls-19" d="M4.15,15.05v-.37h.11l0,.08-.06.29Z"/><path class="cls-19" d="M21.78,15.05v-.37h.11l.05.08-.06.29Z"/><path class="cls-11" d="M12.88,14.58l-.09.42,0,0c0-.14,0-.27,0-.41Z"/><path class="cls-11" d="M12.61,15l.05-.46h.06l0,.41Z"/><path class="cls-19" d="M4.53,15.05l.07-.16h.06l0,.16Z"/><path class="cls-15" d="M11.09,14.57v.48H11v-.46Z"/><path class="cls-14" d="M12.74,15l0-.41h0c0,.14,0,.27,0,.41Z"/><path class="cls-19" d="M22.16,15.05l.05-.14h0l0,.14Z"/><path class="cls-15" d="M11.24,15l.06,0,.09.07Z"/><path class="cls-11" d="M14.22,14.62h-.09v-.08l.22.06Z"/><path class="cls-14" d="M14.22,14.62h.13a0,0,0,0,1,0,.05Z"/><path class="cls-11" d="M12.55,14.57l0,0a0,0,0,0,1,0,0Z"/><path class="cls-14" d="M7.59,15l0,.06Z"/><path class="cls-12" d="M13.92,15.05,14,15Z"/><path class="cls-12" d="M14,14.83l0-.05H14S14,14.81,14,14.83Z"/><path class="cls-20" d="M5.19,9.64l0,.38c-.2,0-.42.12-.53-.11A1,1,0,0,1,4.3,10c-.27,0-.58.15-.8-.15H3.41c-.17.3-.44.08-.65.14,0,0,0,0-.08-.08L2.47,9.8l0,.08L2.6,10v0l-.29,0,0-.26c.1-.16.41.09.39-.23H3l0,.32.16-.33,0,.16c.19.09.45-.11.59.11a1.31,1.31,0,0,1,.28-.09c.15,0,.3,0,.44,0s.12-.12.18-.18l.16.33,0-.36Z"/><path class="cls-21" d="M22.76,10H21.28l-.11-.2L21,10l0,0h-.43c-.11,0-.22,0-.24-.13s-.14-.05-.21-.07l0,.06.17.08v0l-.29,0V9.77c.1-.16.4.09.38-.23h.3l0,.32.16-.33,0,.15c.19.11.45-.11.57.1a1.21,1.21,0,0,0,.35-.07c.17-.07.45.16.52-.19l.16.33,0-.3.31,0Z"/><path class="cls-20" d="M9.06,9.54V10c-.46,0-.9,0-1.34,0-.1,0-.19-.18-.29-.18s-.16.15-.26.18a.92.92,0,0,1-.37,0c-.07,0-.13-.08-.19-.12l-.2-.08,0,.06.16.08v0l-.29,0,0-.3.28,0,.41-.23,0,.43,0,0c0-.11,0-.21.07-.32l.15.15h.46c0,.05,0,.08,0,.1l.15.12h0l-.14-.19c.26,0,.46,0,.66,0s.2,0,.19-.18c.22.06.06.24.11.36l.07,0V9.53h.1v.3l.1,0C9,9.75,8.83,9.58,9.06,9.54Zm-.55.36,0,0a.08.08,0,0,0,0,0l0,0Z"/><path class="cls-22" d="M14.35,9.64H13c.16.13.4,0,.54.18-.17,0-.34-.08-.43.17,0,0-.33,0-.51,0l0,0,0-.38h.08l.06.38,0,0V9.51c.43,0,.84,0,1.25,0C14.2,9.49,14.28,9.58,14.35,9.64Z"/><path class="cls-22" d="M16.39,10l-.11-.13,0,0,.06.15a4.86,4.86,0,0,1-.54,0c-.13,0-.33.11-.39-.15,0,0-.2,0-.35-.07.05,0,.11-.09.17-.09.33,0,.67,0,1,0,.13,0,.21,0,.19-.17h.31v.32Z"/><path class="cls-22" d="M12.62,10,12,10l0-.19h-.06l0,.19h-.32l0,0c-.05-.05-.12-.15-.14-.14a1.66,1.66,0,0,0-.24.18l0-.31h1.37l.12-.07,0,.24Zm-.14-.07a.08.08,0,0,0,0-.05h0l0,.06Z"/><path class="cls-23" d="M14.94,9.54V10c-.19-.07-.43.15-.55-.17,0,0-.12,0-.19,0l.15.08v0l-.29,0V9.72l.3,0C14.5,9.43,14.74,9.55,14.94,9.54Z"/><path class="cls-24" d="M11,9.54V10c-.3.19-.5-.05-.72-.16l0,.06.15.08V10l-.3,0,0-.31.33,0c.06-.17.22-.15.37-.17l0,.33C10.94,9.76,10.75,9.52,11,9.54Z"/><path class="cls-25" d="M18.82,10c-.18,0-.44.15-.54-.17,0,0-.13,0-.21,0l.16.07V10l-.29,0V9.75c.12-.12.4.09.39-.22l.16.27,0-.26h.31Z"/><path class="cls-26" d="M1.32,9.71H2.2l0,.31h-.9Z"/><path class="cls-26" d="M18.94,9.7a.67.67,0,0,1,.69.28l0-.08-.19-.17.37,0,0,.32c-.2,0-.41.14-.56-.13,0,0-.19,0-.29.08l-.11,0Z"/><path class="cls-27" d="M2.61,9.54s-.1.1-.15.1H1.32s0-.13.06-.13Z"/><path class="cls-27" d="M6.5,9.65H5.26c.06-.06.12-.15.19-.15.3,0,.6,0,.9,0C6.46,9.48,6.59,9.46,6.5,9.65Z"/><path class="cls-22" d="M18.23,9.54c-.07,0-.13.09-.19.1l-1.17,0-.07-.06.07,0A2.42,2.42,0,0,1,18.23,9.54Z"/><path class="cls-28" d="M4.69,9.52c-.06.06-.11.16-.18.18s-.29,0-.44,0a1.31,1.31,0,0,0-.28.09c-.14-.22-.4,0-.59-.11l0-.16h.11s0,0,0,0l1.21,0V9.53Z"/><path class="cls-28" d="M22.27,9.52c-.07.35-.35.12-.52.19a1.21,1.21,0,0,1-.35.07c-.12-.21-.38,0-.57-.1l0-.15h.11s0,0,0,0l1.22,0V9.53Z"/><path class="cls-28" d="M8.57,9.53c0,.14,0,.19-.19.18s-.4,0-.66,0l.14.19h0L7.7,9.79s0,0,0-.1H7.2V9.58l1.22,0s0,0,0-.08Z"/><path class="cls-21" d="M20.24,9.54c-.07,0-.13.09-.2.1h-1.1s.06-.12.09-.12Z"/><path class="cls-27" d="M10.42,9.63H9.31c-.06,0-.12-.06-.18-.1h1.18S10.38,9.6,10.42,9.63Z"/><path class="cls-27" d="M12.38,9.64h-1.1c-.07,0-.13-.07-.2-.1H12.4Z"/><path class="cls-27" d="M16.31,9.54s-.09.1-.13.1h-1s-.08-.07-.12-.1Z"/><path class="cls-22" d="M16.87,9.67l.42,0a.3.3,0,0,1,.17.11c-.16,0-.37-.11-.43.18,0,0-.16,0-.25,0S16.68,9.75,16.87,9.67Z"/><path class="cls-1" d="M4.53,9.53v.08l-1.21,0s0,0,0,0Z"/><path class="cls-1" d="M8.46,9.53s0,.08,0,.08l-1.22,0,.84,0Z"/><path class="cls-1" d="M22.16,9.53v.08l-1.22,0s0,0,0,0Z"/><path class="cls-21" d="M16.39,10l.3-.11V10Z"/><path class="cls-29" d="M12.38,9.64l0-.11h.1l.06.08h0l-.12.07Z"/><path class="cls-30" d="M9,9.86l-.1,0Z"/><path class="cls-30" d="M8.75,9.87v0l-.07,0Z"/><path class="cls-22" d="M12.56,9.62l-.06-.08h.05l0,.07v0Z"/><path class="cls-25" d="M12.6,9.6l0-.07Z"/><path class="cls-21" d="M16.8,9.61v0Z"/><path class="cls-22" d="M16.8,9.61V9.54l.06,0-.07,0Z"/><path class="cls-25" d="M12.88,9.87l0,0Z"/><path class="cls-25" d="M12.62,10V9.87l.06,0,0,0Z"/><path class="cls-24" d="M9.12,9.7c.22.05.44-.11.54.09L10,9.67,10,10c-.2-.07-.44.16-.55-.17L9.15,10Z"/><path class="cls-24" d="M5.27,10V9.72c.19,0,.39-.12.5.07l.38-.11V10c-.21,0-.45.15-.56-.17Z"/><path class="cls-22" d="M13.92,10h-.49c.14-.21.26-.35.53-.29V10Z"/><path class="cls-22" d="M17.84,9.73V10h-.45C17.38,9.83,17.55,9.71,17.84,9.73Z"/><path class="cls-25" d="M11.84,10l0-.19h.06L12,10Z"/><path class="cls-20" d="M15.07,10A1.12,1.12,0,0,1,15,9.89l.06,0V10Z"/><path class="cls-20" d="M11.48,10l0,0Z"/><path class="cls-30" d="M13.92,10l0,0Z"/><path class="cls-22" d="M15.07,10v0Z"/><path class="cls-20" d="M21,10l0,0Z"/><path class="cls-18" d="M4.15,14.68v.11H3.28v-.13Z"/><path class="cls-18" d="M4.31,14.76l0-.08h.32v.07Z"/><path class="cls-18" d="M21.78,14.68v.11h-.86v-.13Z"/><path class="cls-18" d="M21.94,14.76l-.05-.08h.32v.07Z"/><path class="cls-11" d="M13.7,14.79l.19.13c-.27.11-.29.1-.35-.13Z"/><path class="cls-30" d="M8.51,9.9l0,0,0,0a.08.08,0,0,1,0,0Z"/><path class="cls-25" d="M12.48,9.88l0,0,0-.06h0A.08.08,0,0,1,12.48,9.88Z"/></svg>