<?xml version="1.0" encoding="utf-8"?>
<!-- Generator: Adobe Illustrator 23.0.1, SVG Export Plug-In . SVG Version: 6.00 Build 0)  -->
<svg version="1.1" id="Layer_1" xmlns="http://www.w3.org/2000/svg" xmlns:xlink="http://www.w3.org/1999/xlink" x="0px" y="0px"
	 viewBox="0 0 200 90" style="enable-background:new 0 0 200 90;" xml:space="preserve">
<style type="text/css">
	.st0{fill:#2F4F7F;}
</style>
<title>PythonEx</title>
<path class="st0" d="M87.7,51.8c0-0.2,0-0.5-0.1-0.7c-0.2-0.4-0.5-0.7-0.9-0.8L82,22.5c0.6-0.4,0.9-1.2,0.5-1.8
	c-0.3-0.6-1.1-0.9-1.7-0.6c0,0,0,0,0,0l-0.1,0.1L59.9,2c0.3-0.7,0.1-1.5-0.5-1.8c-0.6-0.3-1.4-0.1-1.8,0.5c0,0,0,0,0,0
	c-0.1,0.1-0.1,0.3-0.1,0.4L30.4,1c-0.3-0.6-1.1-0.9-1.7-0.6c0,0,0,0,0,0c-0.5,0.3-0.8,0.9-0.7,1.5L7,20c-0.2-0.1-0.4-0.2-0.7-0.2
	c-0.7,0-1.3,0.6-1.3,1.3c0,0.5,0.2,0.9,0.6,1.1L0.8,50.1c-0.7,0.3-1,1-0.8,1.7c0.2,0.5,0.7,0.9,1.2,0.9l0,0l13.4,24.4
	c-0.4,0.6-0.3,1.4,0.3,1.9c0.4,0.3,0.9,0.3,1.3,0.1c0.1-0.1,0.2-0.1,0.3-0.2l25.7,9.8c0,0.2,0,0.4,0.1,0.6c0.3,0.6,1,0.9,1.7,0.7
	c0,0,0,0,0.1,0c0.5-0.2,0.7-0.7,0.7-1.2l25.6-9.5c0.5,0.5,1.3,0.5,1.8,0c0,0,0,0,0,0c0.4-0.5,0.5-1.2,0.2-1.7l13.8-24.4
	c0.3,0.1,0.6,0.1,0.8-0.1C87.4,52.8,87.7,52.4,87.7,51.8l0.1,0.1L87.7,51.8z M80.8,22.5l-8,23.5c-0.6-0.1-1.3,0.1-1.7,0.7L59.9,36.4
	l20.6-14.1C80.6,22.4,80.7,22.5,80.8,22.5z M60.6,53.6l-0.8,17c-0.1,0-0.3,0.1-0.4,0.1c-0.2,0.1-0.4,0.2-0.5,0.4L49.6,66H44
	l11.4-22.2l15.4,4.1c0,0.2,0.1,0.4,0.2,0.6c0.4,0.9,1.4,1.3,2.2,0.9c0,0,0,0,0,0c0.3-0.1,0.6-0.4,0.7-0.7l11.1,2.9l-24.6,1.8
	L60.6,53.6z M37.4,64.2l-7.3-21.7c0.4-0.3,0.5-0.9,0.2-1.4V41l8.2-12.1l11.3-0.5H50l11-11.2c0.1,0.1,0.3,0.2,0.4,0.2l-2.1,18.9
	l-0.2,0.1L70.9,47c0,0.1-0.1,0.2-0.1,0.3l-15.5-4l-0.2-0.1L43.3,66.4h5l-7,2.4c-0.2-0.3-0.6-0.6-1-0.6v-2.2L37.4,64.2z M18.1,57.4
	v-0.2L32,55l-0.2-0.3l-1.7-10.9l6.7,20.1l-4.9-3l0.1-0.1L18.1,57.4z M2.3,50.5l14.2-13.4c0.1,0.1,0.3,0.2,0.4,0.3l-0.7,18.1
	c-0.2,0-0.4,0.1-0.6,0.2c-0.3,0.2-0.6,0.5-0.8,0.8L2.5,51.7c0-0.1,0-0.2,0-0.3C2.5,51,2.4,50.7,2.3,50.5L2.3,50.5z M17.3,37.4
	L17.3,37.4c0.2,0,0.3,0,0.4-0.1l7.3,9.3c-0.1,0.2-0.2,0.4-0.2,0.6c0,0.6,0.4,1,1,1c0.1,0,0.3,0,0.4-0.1l5,6.5l-13.2,2
	c0-0.1-0.1-0.2-0.1-0.3c-0.2-0.5-0.7-0.9-1.3-1L17.3,37.4z M27,16.1c0.1-0.1,0.2-0.2,0.3-0.3l13,6.9l8.2-8.5
	c0.2,0.2,0.5,0.3,0.8,0.4l0.2,13.4l-11.2,0.5l0,0l-3.4,5.1l-16.3,2.2l0,0l13.1-7.2l0.3,0.1L27,16.1z M27.5,15.4
	c0-0.1,0.1-0.2,0.1-0.3l20.3-1.9c0,0.3,0.2,0.5,0.3,0.7l-8,8.3L27.5,15.4z M18.6,36.2L34.5,34l-4.6,6.8c-0.1,0-0.2-0.1-0.4-0.1
	c-0.6,0-1,0.4-1,1c0,0.2,0.1,0.5,0.3,0.7l-2.7,4c-0.1,0-0.2-0.1-0.4-0.1c-0.1,0-0.3,0-0.4,0.1l-7.2-9.3
	C18.4,36.8,18.6,36.5,18.6,36.2z M26.5,46.6l2.7-4c0.1,0,0.2,0.1,0.3,0.1L31.2,54l-4.7-6.1C26.8,47.5,26.8,47,26.5,46.6L26.5,46.6z
	 M60.6,16.7c0,0.1,0.1,0.1,0.1,0.2L50,27.7l-0.2-13.2c0.2,0,0.3-0.1,0.5-0.1c0.4-0.2,0.7-0.6,0.9-1l9.3,2.6
	C60.5,16.2,60.5,16.5,60.6,16.7z M80.2,22L80.2,22L59.8,36l2.1-18.5c0.5,0,1-0.3,1.1-0.8l17.2,4.7C80.1,21.6,80.2,21.8,80.2,22z
	 M59.2,2.9c0.1,0,0.1-0.1,0.2-0.1L80,20.9l-17-4.6c0-0.2,0-0.5-0.1-0.7c-0.3-0.6-1-0.9-1.7-0.7c0,0,0,0,0,0l0,0
	c-0.3,0.1-0.5,0.4-0.7,0.7L51.3,13c0.1-0.3,0-0.7-0.1-1c-0.1-0.2-0.2-0.3-0.3-0.4l7.3-8.8C58.4,3,58.8,3,59.2,2.9L59.2,2.9z
	 M30.5,1.9l27,0.1v0.1c0.1,0.1,0.1,0.2,0.2,0.3l-7.2,8.8c-0.5-0.3-1.1-0.4-1.7-0.1c-0.3,0.1-0.5,0.3-0.7,0.6L30.5,1.9L30.5,1.9z
	 M29,2.9c0.2,0,0.5,0,0.7-0.1c0.2-0.1,0.4-0.3,0.5-0.5L48,12.1c-0.1,0.2-0.1,0.4-0.1,0.6l-20.3,1.9c-0.1-0.4-0.4-0.7-0.8-0.9L29,2.9
	z M28.4,2.7c0.1,0,0.1,0.1,0.2,0.1l-2.2,10.9l0,0c-0.7,0-1.3,0.6-1.3,1.3c0,0,0,0.1,0,0.1v0.2L7.8,20.4L28.4,2.7z M25.2,15.6
	c0.2,0.5,0.7,0.7,1.1,0.7c0.1,0,0.2,0,0.3,0l4.7,11.6L7.6,21.2V21L25.2,15.6z M7.5,21.7l23.6,6.6l-12.7,7c-0.4-0.6-1.2-0.7-1.8-0.3
	c0,0,0,0,0,0L7.3,22C7.4,21.9,7.4,21.8,7.5,21.7z M1.7,50.1l4.8-27.7c0.1,0,0.2-0.1,0.4-0.1l9.4,13c-0.3,0.4-0.3,1-0.1,1.4L1.9,50.2
	L1.7,50.1z M15.6,76.5h-0.1L2.1,52.3c0.1-0.1,0.2-0.2,0.2-0.3l12.3,4.7c-0.2,0.9,0.3,1.9,1.3,2.1h0.1L15.6,76.5z M16.6,76.8
	c-0.2-0.1-0.3-0.2-0.5-0.3L16.5,59c0.2,0,0.4-0.1,0.5-0.2c0.4-0.2,0.7-0.6,0.9-1L31.1,61L16.6,76.8z M17,77.3l-0.1-0.1l14.7-16
	l5.4,3.4l0,0l2.9,1.8v2c-0.1,0-0.1,0-0.2,0.1c-0.5,0.3-0.7,0.8-0.7,1.3L17,77.3C17,77.3,17,77.3,17,77.3L17,77.3z M43,87.4
	c-0.2,0.1-0.3,0.2-0.4,0.3L17,78c0-0.1,0-0.1,0-0.2l22-7.7l0,0c0.2,0.4,0.6,0.7,1.1,0.8L43,87.4L43,87.4z M43.5,87.1l-2.9-16.2
	l0.2-0.1c0.6-0.3,0.9-0.9,0.7-1.5l7.8-2.7L43.5,87.1z M70.1,78.3l-25.5,9.5c-0.2-0.2-0.4-0.4-0.7-0.5l5.8-20.8l9.1,5
	c-0.2,0.7,0.1,1.4,0.8,1.7c0.3,0.1,0.6,0.1,0.9,0c0.2-0.1,0.4-0.2,0.5-0.4l9.2,5.1C70.1,78,70.1,78.2,70.1,78.3L70.1,78.3z
	 M70.4,77.4l-9.2-5.1c0.2-0.7-0.1-1.4-0.8-1.7l0,0h-0.1L61,54.6l9.8,22.5C70.6,77.2,70.5,77.3,70.4,77.4L70.4,77.4z M71.7,77
	c-0.2,0-0.4,0-0.5,0l-10-23.1l24-1.7c0,0.1,0,0.2,0.1,0.2c0.1,0.1,0.1,0.2,0.2,0.3L71.7,77z M85.2,51.2l-11.1-2.9
	c0.1-0.4,0.1-0.9-0.1-1.3c-0.2-0.4-0.5-0.7-0.8-0.9l7.9-23.3l4.6,27.8C85.5,50.8,85.4,51,85.2,51.2L85.2,51.2z"/>
<path class="st0" d="M71.6,52c-0.6-1.2-1.2-2.9-1.9-4.9c-0.9-2.5-1.6-5.2-2.2-7.8c0.3-0.4,0.8-0.6,1.2-0.8c0.5-0.2,1.1-0.4,1.7-0.3
	c0.7,0,1.3,0.1,1.9,0.5c0.6,0.5,1,1.1,1.1,1.8c0.5,1.8,1.1,3.6,1.6,5.4c0.5,1.8,1.1,3.5,1.6,5.3h0.2c0.3-0.8,0.6-1.8,0.9-2.8
	s0.6-2,0.9-3.1s0.6-2.2,0.8-3.3s0.5-2.2,0.7-3.2c0.7-0.4,1.5-0.6,2.3-0.6c0.7,0,1.4,0.2,2,0.5c0.6,0.4,0.9,1,0.8,1.7
	c0,1.1-0.2,2.3-0.4,3.4c-0.3,1.4-0.7,2.9-1.2,4.3c-0.5,1.5-1,3-1.7,4.5c-0.5,1.3-1.2,2.6-1.8,3.9c-1,1.9-2.2,3.7-3.6,5.3
	c-0.8,1-2,1.6-3.3,1.7c-0.8,0-1.6-0.3-2.2-0.8c-0.6-0.6-1-1.3-1.1-2.1c0.8-0.8,1.6-1.6,2.4-2.4c0.8-0.9,1.5-1.8,2.1-2.8
	c-0.5-0.2-1-0.4-1.4-0.8C72.4,53.7,71.9,52.9,71.6,52z"/>
<path class="st0" d="M94.2,52c0.5,0.3,1.2,0.5,1.8,0.5c0.4,0,0.8,0,1.2-0.1c0.3-0.1,0.7-0.2,1-0.3c0.2,0.3,0.4,0.5,0.5,0.8
	c0.2,0.4,0.3,0.7,0.3,1.1c0,0.8-0.4,1.6-1,2.1c-1,0.7-2.2,1-3.4,0.8c-1.7,0.1-3.4-0.4-4.7-1.4c-1.1-1-1.7-2.5-1.7-4.7V34.2
	c0.3-0.1,0.7-0.2,1-0.2c0.5-0.1,0.9-0.1,1.4-0.1c0.8-0.1,1.6,0.1,2.3,0.6c0.5,0.6,0.8,1.3,0.7,2.1v2.4h5c0.1,0.3,0.3,0.6,0.4,1
	c0.1,0.4,0.2,0.8,0.2,1.2c0.1,0.6-0.1,1.2-0.5,1.7c-0.4,0.3-0.8,0.5-1.3,0.5h-3.6v7.3C93.5,51.1,93.8,51.6,94.2,52z"/>
<path class="st0" d="M106.7,56.6c-0.5,0.1-1,0.1-1.4,0.1c-0.8,0.1-1.6-0.1-2.3-0.5c-0.6-0.5-0.8-1.3-0.7-2.1V32.2
	c0.3-0.1,0.7-0.2,1.1-0.2c0.5-0.1,1-0.1,1.4-0.1c0.8-0.1,1.6,0.1,2.3,0.6c0.5,0.6,0.8,1.3,0.7,2.1v4.3c1.2-0.6,2.5-0.9,3.8-0.9
	c2-0.1,3.9,0.5,5.4,1.8c1.4,1.4,2.1,3.4,2,5.4v11.2c-0.3,0.1-0.7,0.2-1,0.2c-0.5,0.1-1,0.1-1.4,0.1c-0.8,0.1-1.6-0.1-2.3-0.5
	c-0.6-0.6-0.8-1.3-0.7-2.1v-8.5c0.2-1.5-0.7-2.8-2.2-3.1c-0.2,0-0.5,0-0.7,0c-0.5,0-1,0.1-1.5,0.2c-0.4,0.2-0.9,0.4-1.3,0.6v13.2
	C107.5,56.5,107.1,56.5,106.7,56.6z"/>
<path class="st0" d="M140.6,47.5c0,1.4-0.2,2.7-0.6,4c-0.8,2.3-2.5,4.1-4.8,4.9c-1.2,0.5-2.5,0.7-3.8,0.7c-1.3,0-2.6-0.2-3.8-0.7
	c-2.2-0.8-4-2.6-4.8-4.9c-0.4-1.3-0.7-2.6-0.6-4c0-1.3,0.2-2.7,0.7-3.9c0.4-1.1,1-2.1,1.9-3c0.8-0.8,1.8-1.5,2.9-1.9
	c1.2-0.5,2.5-0.7,3.8-0.6c1.3,0,2.5,0.2,3.7,0.7c1.1,0.4,2.1,1.1,2.9,1.9c0.8,0.9,1.5,1.9,1.9,3C140.3,44.8,140.6,46.1,140.6,47.5z
	 M131.4,42.5c-1-0.1-2,0.4-2.6,1.3c-0.7,1.1-1,2.4-0.9,3.7c-0.1,1.3,0.2,2.6,0.9,3.8c1.1,1.5,3.2,1.7,4.7,0.6c0.1,0,0.1-0.1,0.2-0.1
	c0.2-0.1,0.3-0.3,0.5-0.5c0.7-1.1,1-2.4,0.9-3.8c0.1-1.3-0.3-2.6-0.9-3.7C133.4,42.9,132.5,42.4,131.4,42.5L131.4,42.5z"/>
<path class="st0" d="M154.3,43c-0.6-0.4-1.3-0.7-2-0.6c-0.5,0-1.1,0.1-1.6,0.2c-0.5,0.1-0.9,0.3-1.3,0.6v13.2
	c-0.3,0.1-0.7,0.2-1,0.2c-0.5,0.1-1,0.1-1.4,0.1c-0.8,0.1-1.6-0.1-2.3-0.5c-0.6-0.6-0.8-1.3-0.7-2.1V42.5c0-0.5,0.1-1.1,0.4-1.6
	c0.3-0.4,0.7-0.8,1.1-1.1c0.9-0.6,1.9-1.1,3-1.4c1.3-0.4,2.6-0.6,4-0.5c2.2-0.1,4.3,0.5,6.1,1.8c1.5,1.3,2.3,3.2,2.1,5.1v11.6
	c-0.3,0.1-0.7,0.1-1,0.2c-0.5,0.1-1,0.1-1.4,0.1c-0.8,0.1-1.6-0.1-2.3-0.5c-0.6-0.5-0.9-1.3-0.8-2.1v-9
	C155.1,44.3,154.8,43.6,154.3,43z"/>
<path class="st0" d="M165.9,55.7c-0.6-0.6-0.9-1.4-0.8-2.3V37c-0.1-1.6,1-2.9,2.6-3.1H180c0.2,0.3,0.3,0.6,0.4,0.9
	c0.1,0.4,0.2,0.8,0.2,1.3c0,0.6-0.1,1.3-0.5,1.8c-0.4,0.4-0.9,0.6-1.4,0.6h-8v4.2h8.3c0.2,0.3,0.3,0.6,0.4,0.9
	c0.1,0.4,0.2,0.8,0.2,1.3c0.1,0.6-0.1,1.3-0.5,1.8c-0.4,0.4-0.9,0.6-1.4,0.6h-7v4.7h9.5c0.4,0.7,0.6,1.5,0.6,2.3
	c0.1,0.6-0.1,1.3-0.5,1.8c-0.4,0.4-0.9,0.6-1.4,0.6h-10.7C167.3,56.6,166.5,56.2,165.9,55.7z"/>
<path class="st0" d="M185,51.2c0.5-0.7,1.1-1.3,1.6-2s1.1-1.3,1.6-2l-4.9-6.1c0.1-0.8,0.5-1.5,1-2.1c0.5-0.5,1.2-0.8,1.9-0.8
	c0.3,0,0.6,0,0.9,0.1c0.3,0.1,0.5,0.2,0.7,0.4c0.2,0.2,0.5,0.4,0.6,0.7c0.2,0.3,0.4,0.6,0.7,0.9l2.6,3.6l4.1-5.6c0.1,0,0.2,0,0.3,0
	h0.3c0.9,0,1.7,0.2,2.4,0.7c0.6,0.4,0.9,1,0.9,1.7c0,0.5-0.1,1.1-0.4,1.5c-0.4,0.7-0.9,1.3-1.4,1.9l-2.8,3.3l5,6.7
	c-0.1,0.8-0.4,1.5-1,2c-0.5,0.5-1.2,0.7-1.9,0.7c-0.7,0-1.4-0.3-1.9-0.7c-0.5-0.5-1-1.1-1.4-1.7l-2.3-3.4l-3.9,5.8h-0.7
	c-0.9,0.1-1.8-0.2-2.5-0.7c-0.6-0.4-0.9-1.1-0.9-1.8c0-0.5,0.1-1,0.4-1.4C184.1,52.2,184.5,51.7,185,51.2z"/>
<path class="st0" d="M38.5,52.7l-4.3,10.9c-0.6-0.1-1.2-0.2-1.8-0.4c-0.8-0.2-1.6-0.5-2.3-0.8c-1.3-0.4-2.5-1.3-3.2-2.5
	c-0.4-1.2-0.3-2.5,0.3-3.7l10.8-27.3c0.2-0.7,0.7-1.2,1.3-1.5c0.6-0.3,1.3-0.3,2-0.3c0.7,0,1.5,0.1,2.2,0.3c0.8,0.2,1.6,0.4,2.4,0.6
	c0.8,0.2,1.6,0.5,2.4,0.8c0.8,0.3,1.5,0.6,2.2,0.9c4.9,2.1,8.3,4.8,9.9,8c1.7,3.3,1.8,7.1,0.3,10.5c-0.6,1.7-1.6,3.3-2.9,4.5
	c-1.2,1.2-2.6,2.1-4.2,2.6c-1.7,0.5-3.5,0.7-5.3,0.5c-2.1-0.2-4.2-0.8-6.2-1.6L38.5,52.7z M44.3,47.1c1.5,0.7,3.1,0.9,4.7,0.5
	c1.5-0.5,2.6-1.7,3.1-3.1c1.3-3.3,0.1-5.8-3.8-7.5c-0.7-0.3-1.2-0.5-1.8-0.7s-1-0.3-1.5-0.5l-3.9,9.9L44.3,47.1z"/>
</svg>
